<svg id="Layer_1" data-name="Layer 1" xmlns="http://www.w3.org/2000/svg" viewBox="0 0 28.05 34.81">
    <path d="M28.05,10.52V25.71H25.71V10.52H21A3.51,3.51,0,0,1,17.53,7V2.34H4.67A2.33,2.33,0,0,0,2.34,4.67v21H0v-21A4.67,4.67,0,0,1,4.67,0H17.53Z"
          style="fill:#dd7b2a;fill-rule:evenodd"/>
    <path d="M6.58,33.35a2.27,2.27,0,0,1-.23-.92H7.91a1.15,1.15,0,0,0,.52.78,1.72,1.72,0,0,0,.51.24,2.57,2.57,0,0,0,.65.08,2.3,2.3,0,0,0,.84-.14A1.14,1.14,0,0,0,11,33a1,1,0,0,0,.17-.59.77.77,0,0,0-.31-.66,2.3,2.3,0,0,0-.94-.4l-1.26-.29a3.39,3.39,0,0,1-1.1-.44,2,2,0,0,1-.72-.74,2.22,2.22,0,0,1-.25-1.07,2.25,2.25,0,0,1,.39-1.31A2.7,2.7,0,0,1,8,26.63a4,4,0,0,1,1.59-.3,3.67,3.67,0,0,1,1.59.31,2.52,2.52,0,0,1,1,.84,2.16,2.16,0,0,1,.4,1.15H11.07a1.11,1.11,0,0,0-.24-.53,1.19,1.19,0,0,0-.5-.36,1.8,1.8,0,0,0-.76-.14,1.57,1.57,0,0,0-1,.31,1,1,0,0,0-.38.78.74.74,0,0,0,.3.61,2,2,0,0,0,.82.36l1.27.29a4.11,4.11,0,0,1,1.15.43,2,2,0,0,1,.77.73,2.19,2.19,0,0,1,.27,1.14,2.42,2.42,0,0,1-.38,1.34,2.54,2.54,0,0,1-1.1.9,4.34,4.34,0,0,1-1.75.32,4.3,4.3,0,0,1-1.36-.19,2.83,2.83,0,0,1-1-.51A2.3,2.3,0,0,1,6.58,33.35Z"
          style="fill:#a0d63a;fill-rule:evenodd"/>
    <path d="M.25,33.28a2.61,2.61,0,0,1-.17-1H1.64a1.08,1.08,0,0,0,.15.55,1,1,0,0,0,.92.5,1.05,1.05,0,0,0,.86-.33,1.44,1.44,0,0,0,.28-.95V26.5H5.47v5.55a2.74,2.74,0,0,1-.73,2.05,2.75,2.75,0,0,1-2,.71,3.53,3.53,0,0,1-1.16-.19,2.41,2.41,0,0,1-.83-.55A2.33,2.33,0,0,1,.25,33.28Z"
          style="fill:#a0d63a;fill-rule:evenodd"/>
    <polygon
            points="23.05 29.2 23.05 34.65 21.53 34.65 21.53 26.5 22.88 26.5 26.45 31.92 26.52 31.92 26.52 26.5 28.05 26.5 28.05 34.65 26.71 34.65 23.12 29.2 23.05 29.2 23.05 29.2"
            style="fill:#a0d63a;fill-rule:evenodd"/>
    <path d="M20,28.07a3,3,0,0,0-1.2-1.28,3.65,3.65,0,0,0-1.87-.45,3.7,3.7,0,0,0-1.87.45,2.91,2.91,0,0,0-1.2,1.28,4.36,4.36,0,0,0-.42,2v1a4.39,4.39,0,0,0,.42,2,3,3,0,0,0,1.2,1.27,3.7,3.7,0,0,0,1.87.45,3.65,3.65,0,0,0,1.87-.45A2.84,2.84,0,0,0,20,33.09a4.39,4.39,0,0,0,.42-2v-1A4.39,4.39,0,0,0,20,28.07Zm-1.21,3a3.16,3.16,0,0,1-.24,1.31,1.88,1.88,0,0,1-.66.79,2,2,0,0,1-1.92,0,1.85,1.85,0,0,1-.65-.79,3.27,3.27,0,0,1-.24-1.31V30.05a3.13,3.13,0,0,1,.24-1.31A1.8,1.8,0,0,1,16,28a1.9,1.9,0,0,1,1.92,0,1.82,1.82,0,0,1,.66.79,3.13,3.13,0,0,1,.24,1.31Z"
          style="fill:#a0d63a;fill-rule:evenodd"/>
</svg>