<svg xmlns="http://www.w3.org/2000/svg" width="40" height="40"
     viewBox="0 0 32.5 34">
    <defs>
        <style>.a{fill:#5c9732;}.b{fill:url(#a);}.c{fill:none;stroke-miterlimit:10;stroke:url(#b);}</style>
        <linearGradient id="a" x1="-2.95" y1="26.5" x2="29.95" y2="7.5" gradientUnits="userSpaceOnUse">
            <stop offset="0" stop-color="#5c9732"/>
            <stop offset="0.22" stop-color="#5e9935"/>
            <stop offset="0.39" stop-color="#669d3f"/>
            <stop offset="0.54" stop-color="#73a64f"/>
            <stop offset="0.68" stop-color="#85b166"/>
            <stop offset="0.81" stop-color="#9cc083"/>
            <stop offset="0.94" stop-color="#b9d3a7"/>
            <stop offset="1" stop-color="#c9ddbb"/>
        </linearGradient>
        <linearGradient id="b" x1="11.69" y1="29.67" x2="31.31" y2="18.33" gradientUnits="userSpaceOnUse">
            <stop offset="0.01" stop-color="#619a38"/>
            <stop offset="0.22" stop-color="#6aa043"/>
            <stop offset="0.41" stop-color="#6ea349"/>
            <stop offset="0.5" stop-color="#76a853"/>
            <stop offset="0.6" stop-color="#7bab59"/>
            <stop offset="0.64" stop-color="#81af61"/>
            <stop offset="0.72" stop-color="#8db66f"/>
            <stop offset="0.78" stop-color="#91b974"/>
            <stop offset="0.86" stop-color="#a5c68d"/>
            <stop offset="0.95" stop-color="#b7d2a4"/>
            <stop offset="1" stop-color="#bed6ad"/>
        </linearGradient>
    </defs>
    <path class="a"
          d="M15.17,24.86a2.24,2.24,0,0,1-.37,1.36,1.19,1.19,0,0,1-1,.48,1.24,1.24,0,0,1-.47-.08v-.57a.78.78,0,0,0,.48.14c.51,0,.77-.44.77-1.32V21.72h.58Z"/>
    <path class="a"
          d="M16.18,26.42v-.68a1.52,1.52,0,0,0,.28.19l.34.14.36.08a2.09,2.09,0,0,0,.34,0,1.33,1.33,0,0,0,.79-.2.68.68,0,0,0,.26-.57.64.64,0,0,0-.09-.34,1,1,0,0,0-.24-.27,2,2,0,0,0-.36-.23l-.46-.24a4.13,4.13,0,0,1-.47-.26,2.47,2.47,0,0,1-.39-.29,1.18,1.18,0,0,1-.26-.37,1.13,1.13,0,0,1-.09-.47,1.22,1.22,0,0,1,.14-.59,1.38,1.38,0,0,1,.39-.41,2.13,2.13,0,0,1,.55-.24,2.56,2.56,0,0,1,.62-.07,2.37,2.37,0,0,1,1.06.17v.65a1.92,1.92,0,0,0-1.12-.3,2.31,2.31,0,0,0-.37,0,1.15,1.15,0,0,0-.34.13.76.76,0,0,0-.24.23.64.64,0,0,0-.09.34.67.67,0,0,0,.07.33,1,1,0,0,0,.21.25,2.36,2.36,0,0,0,.33.22l.45.23.5.27a2.32,2.32,0,0,1,.42.32,1.55,1.55,0,0,1,.28.39,1.06,1.06,0,0,1,.1.48A1.32,1.32,0,0,1,19,26a1.12,1.12,0,0,1-.38.4,1.65,1.65,0,0,1-.56.23,2.84,2.84,0,0,1-.66.07,1.62,1.62,0,0,1-.29,0l-.35-.05-.33-.09A1.62,1.62,0,0,1,16.18,26.42Z"/>
    <path class="a"
          d="M22.1,26.7A2.16,2.16,0,0,1,20.43,26a2.55,2.55,0,0,1-.62-1.78,2.69,2.69,0,0,1,.64-1.89,2.21,2.21,0,0,1,1.74-.7,2.08,2.08,0,0,1,1.63.68,2.53,2.53,0,0,1,.62,1.79A2.7,2.7,0,0,1,23.81,26,2.19,2.19,0,0,1,22.1,26.7Zm0-4.54a1.58,1.58,0,0,0-1.26.55,2.48,2.48,0,0,0,0,2.92,1.52,1.52,0,0,0,1.22.56,1.63,1.63,0,0,0,1.28-.53,2.14,2.14,0,0,0,.46-1.47,2.24,2.24,0,0,0-.45-1.5A1.53,1.53,0,0,0,22.15,22.16Z"/>
    <path class="a"
          d="M29.36,26.62h-.71l-2.52-3.91A1.82,1.82,0,0,1,26,22.4h0a4.71,4.71,0,0,1,0,.68v3.54h-.57v-4.9h.74l2.46,3.84c.1.16.16.27.19.33h0a4.05,4.05,0,0,1,0-.72V21.72h.58Z"/>
    <path class="b"
          d="M13.09,19H27V3.26A3.26,3.26,0,0,0,23.74,0H3.26A3.26,3.26,0,0,0,0,3.26V30.74A3.26,3.26,0,0,0,3.26,34H23.74A3.26,3.26,0,0,0,27,30.74V29H13.09A2.08,2.08,0,0,1,11,26.91V21.09A2.08,2.08,0,0,1,13.09,19ZM5.83,3.93H21.17A.76.76,0,0,1,22,4.6a.76.76,0,0,1-.83.66H5.83A.76.76,0,0,1,5,4.6.76.76,0,0,1,5.83,3.93Zm0,4H21.17A.76.76,0,0,1,22,8.6a.76.76,0,0,1-.83.66H5.83A.76.76,0,0,1,5,8.6.76.76,0,0,1,5.83,7.93Zm4.32,20.22a.54.54,0,0,1-.76,0L7.32,26.08,7.26,26A3.5,3.5,0,1,1,8,25.26l.06.06,2.07,2.07A.54.54,0,0,1,10.15,28.15ZM5.83,13.26A.76.76,0,0,1,5,12.6a.76.76,0,0,1,.83-.67H21.17a.76.76,0,0,1,.83.67.76.76,0,0,1-.83.66Z"/>
    <path class="a" d="M5.19,20.23a3,3,0,1,0,3,3A3,3,0,0,0,5.19,20.23Z"/>
    <rect class="c" x="11" y="19" width="21" height="10" rx="2.09"/>
</svg>