<svg xmlns="http://www.w3.org/2000/svg" width="13" height="13" viewBox="0 0 12.03 12.23">
    <defs>
        <style>.a{fill:#afb1b3;}.b{fill:none;stroke:#afb1b3;stroke-miterlimit:10;stroke-width:0.5px;}</style>
    </defs>
    <path class="a"
          d="M5.58,9a.75.75,0,0,1-.14.48.46.46,0,0,1-.37.18.43.43,0,0,1-.16,0V9.38a.28.28,0,0,0,.18,0c.19,0,.28-.15.28-.47V7.76h.21Z"/>
    <path class="a"
          d="M6,9.52V9.28h.09l.13.06h.26a.45.45,0,0,0,.28-.07.22.22,0,0,0,.11,0,.24.24,0,0,0,0-.12L6.74,9l-.13-.08-.17-.08-.18-.09a.53.53,0,0,1-.14-.12A.25.25,0,0,1,6,8.49a.48.48,0,0,1,0-.17.31.31,0,0,1,0-.25.4.4,0,0,1,.14-.15.5.5,0,0,1,.2-.08.94.94,0,0,1,.62,0v.23A.73.73,0,0,0,6.56,8H6.3A.24.24,0,0,0,6.21,8a.28.28,0,0,0,0,.13.24.24,0,0,0,0,.12.18.18,0,0,0,.07.08.57.57,0,0,0,.13.08l.16.09.18.09a.57.57,0,0,1,.15.12A.55.55,0,0,1,7.07,9a.48.48,0,0,1,0,.17.41.41,0,0,1,0,.22.36.36,0,0,1-.15.15.4.4,0,0,1-.2.08H6Z"/>
    <path class="a"
          d="M8.14,9.62a.77.77,0,0,1-.61-.25.86.86,0,0,1-.24-.64,1,1,0,0,1,.24-.66.75.75,0,0,1,.63-.25.75.75,0,0,1,.6.25A.87.87,0,0,1,9,8.7a1,1,0,0,1-.24.69A.83.83,0,0,1,8.14,9.62ZM8.14,8a.57.57,0,0,0-.46.2.82.82,0,0,0-.18.54.77.77,0,0,0,.18.5.65.65,0,0,0,.92,0,.72.72,0,0,0,.17-.53.77.77,0,0,0-.16-.54A.6.6,0,0,0,8.15,8Z"/>
    <path class="a" d="M10.8,9.59h-.2l-1-1.41a.24.24,0,0,1-.06-.11V9.59H9.35V7.83h.27l.91,1.39.07.12V7.83h.21Z"/>
    <path class="b"
          d="M5.16,6.85h5.51a1.09,1.09,0,0,1,1.11,1.08V9.36a1.09,1.09,0,0,1-1.11,1.08H5.16A1.09,1.09,0,0,1,4.05,9.36V7.93A1.09,1.09,0,0,1,5.16,6.85Z"/>
    <path class="a"
          d="M4.82,6.85H9.94V1.15A1.17,1.17,0,0,0,8.76,0H1.18A1.17,1.17,0,0,0,0,1.15v9.93a1.16,1.16,0,0,0,1.18,1.15H8.72a1.15,1.15,0,0,0,1.17-1.15v-.64H4.82a.75.75,0,0,1-.77-.74V7.6A.75.75,0,0,1,4.82,6.85ZM2.14,1.41H7.79a.28.28,0,0,1,.31.25.29.29,0,0,1-.31.23H2.14a.28.28,0,0,1-.3-.23A.29.29,0,0,1,2.14,1.41Zm0,1.45H7.79a.27.27,0,0,1,.31.24.29.29,0,0,1-.31.23H2.14a.28.28,0,0,1-.3-.23A.27.27,0,0,1,2.14,2.86Zm1.59,7.29a.24.24,0,0,1-.28,0L2.7,9.39A1.29,1.29,0,0,1,1,9.22,1.21,1.21,0,0,1,1,7.54,1.3,1.3,0,0,1,2.7,7.37,1.23,1.23,0,0,1,3,9.1l.76.74A.24.24,0,0,1,3.8,10,.2.2,0,0,1,3.73,10.15ZM2.14,4.77a.27.27,0,0,1-.3-.23.27.27,0,0,1,.3-.24H7.79a.27.27,0,0,1,.31.24.28.28,0,0,1-.31.23Z"/>
    <path class="a" d="M1.91,7.28A1.08,1.08,0,1,0,3,8.36,1.09,1.09,0,0,0,1.91,7.28Z"/>
</svg>