<svg id="Layer_1" data-name="Layer 1" xmlns="http://www.w3.org/2000/svg" viewBox="0 0 10.48 13">
    <path d="M10.48,3.93V9.6H9.6V3.93H7.86A1.31,1.31,0,0,1,6.55,2.62V.87H1.75a.87.87,0,0,0-.88.88V9.6H0V1.75A1.75,1.75,0,0,1,1.75,0h4.8Z"
          style="fill:#dd7b2a;fill-rule:evenodd"/>
    <path d="M2.46,12.45a1,1,0,0,1-.09-.34H3a.43.43,0,0,0,.2.29.48.48,0,0,0,.19.09.88.88,0,0,0,.24,0,1,1,0,0,0,.32,0,.45.45,0,0,0,.19-.15.33.33,0,0,0,.06-.22A.3.3,0,0,0,4,11.85a.88.88,0,0,0-.35-.14l-.48-.11a1.32,1.32,0,0,1-.41-.17.64.64,0,0,1-.26-.28.78.78,0,0,1-.1-.39.81.81,0,0,1,.15-.49A.85.85,0,0,1,3,10a1.38,1.38,0,0,1,.59-.12,1.32,1.32,0,0,1,.59.12,1,1,0,0,1,.39.31.86.86,0,0,1,.15.43H4.14A.44.44,0,0,0,4,10.5a.49.49,0,0,0-.18-.14.56.56,0,0,0-.28,0,.57.57,0,0,0-.39.11.35.35,0,0,0-.15.29.28.28,0,0,0,.11.23.79.79,0,0,0,.31.14l.48.11a1.47,1.47,0,0,1,.43.16.72.72,0,0,1,.28.27.78.78,0,0,1,.1.43.88.88,0,0,1-.14.5,1,1,0,0,1-.41.33,1.6,1.6,0,0,1-.65.12A1.53,1.53,0,0,1,3,12.93a1,1,0,0,1-.36-.19A.77.77,0,0,1,2.46,12.45Z"
          style="fill:#a0d63a;fill-rule:evenodd"/>
    <path d="M.09,12.43A1.09,1.09,0,0,1,0,12.07H.61a.37.37,0,0,0,.06.21.39.39,0,0,0,.34.19.4.4,0,0,0,.32-.13A.52.52,0,0,0,1.44,12V9.9H2V12a1,1,0,0,1-.27.77A1.05,1.05,0,0,1,1,13a1.25,1.25,0,0,1-.43-.07,1,1,0,0,1-.31-.2A1,1,0,0,1,.09,12.43Z"
          style="fill:#a0d63a;fill-rule:evenodd"/>
    <polygon
            points="8.61 10.9 8.61 12.94 8.04 12.94 8.04 9.9 8.55 9.9 9.88 11.92 9.9 11.92 9.9 9.9 10.48 9.9 10.48 12.94 9.98 12.94 8.63 10.9 8.61 10.9 8.61 10.9"
            style="fill:#a0d63a;fill-rule:evenodd"/>
    <path d="M7.47,10.48A1.07,1.07,0,0,0,7,10a1.28,1.28,0,0,0-.7-.17,1.32,1.32,0,0,0-.7.17,1.05,1.05,0,0,0-.44.47,1.6,1.6,0,0,0-.16.75v.39a1.58,1.58,0,0,0,.16.74,1.11,1.11,0,0,0,.44.47,1.42,1.42,0,0,0,.7.17,1.37,1.37,0,0,0,.7-.17,1.07,1.07,0,0,0,.45-.47,1.72,1.72,0,0,0,.16-.74v-.39A1.73,1.73,0,0,0,7.47,10.48ZM7,11.62a1.19,1.19,0,0,1-.09.49.64.64,0,0,1-.25.29.65.65,0,0,1-.36.1A.62.62,0,0,1,6,12.4a.64.64,0,0,1-.25-.29,1.37,1.37,0,0,1-.09-.49v-.4a1.16,1.16,0,0,1,.09-.49A.64.64,0,0,1,6,10.44a.62.62,0,0,1,.35-.1.61.61,0,0,1,.36.1.64.64,0,0,1,.25.29,1.16,1.16,0,0,1,.09.49Z"
          style="fill:#a0d63a;fill-rule:evenodd"/>
</svg>